<svg xmlns="http://www.w3.org/2000/svg" width="1200" height="1200" viewBox="0 0 1200 1200" role="img" aria-label="AGUAS" data-template-version="v1" data-icon="glass-water"><defs><linearGradient id="bg" x1="0" y1="0" x2="1" y2="1"><stop offset="0%" stop-color="#3A77E6"/><stop offset="100%" stop-color="#1A2A67"/></linearGradient><radialGradient id="halo" cx="0.5" cy="0.4" r="0.7"><stop offset="0%" stop-color="#FFFFFF" stop-opacity="0.18"/><stop offset="100%" stop-color="#FFFFFF" stop-opacity="0"/></radialGradient></defs><rect width="1200" height="1200" fill="url(#bg)"/><circle cx="600" cy="500" r="306" fill="none" stroke="#FFFFFF" stroke-opacity="0.18" stroke-width="12"/><circle cx="600" cy="500" r="246" fill="none" stroke="#FFFFFF" stroke-opacity="0.30" stroke-width="4"/><circle cx="600" cy="500" r="220" fill="#0E1A2E" fill-opacity="0.26"/><circle cx="600" cy="500" r="320" fill="url(#halo)"/><g transform="translate(600 500) scale(14) translate(-12 -12)" color="#FFFFFF" stroke="currentColor" fill="none" stroke-width="2" stroke-linecap="round" stroke-linejoin="round"><path d="M5.116 4.104A1 1 0 0 1 6.11 3h11.78a1 1 0 0 1 .994 1.105L17.19 20.21A2 2 0 0 1 15.2 22H8.8a2 2 0 0 1-2-1.79z" />
  <path d="M6 12a5 5 0 0 1 6 0 5 5 0 0 0 6 0" /></g><rect x="255" y="874" width="690" height="142" rx="71" fill="#0E1A2E" fill-opacity="0.5"/><rect x="265" y="884" width="670" height="122" rx="61" fill="none" stroke="#FFFFFF" stroke-opacity="0.36" stroke-width="3"/><text x="600" y="961" text-anchor="middle" fill="#FFFFFF" font-family="Arial Black, Arial, Helvetica, sans-serif" font-size="70" font-weight="700" letter-spacing="2">AGUAS</text><rect x="10" y="10" width="1180" height="1180" rx="24" fill="none" stroke="#FFFFFF" stroke-opacity="0.14" stroke-width="4"/></svg>