<svg xmlns="http://www.w3.org/2000/svg" width="1200" height="1200" viewBox="0 0 1200 1200" role="img" aria-label="ENERGÉTICAS E" data-template-version="v1" data-icon="zap"><defs><linearGradient id="bg" x1="0" y1="0" x2="1" y2="1"><stop offset="0%" stop-color="#2D9A8B"/><stop offset="100%" stop-color="#154D4D"/></linearGradient><radialGradient id="halo" cx="0.5" cy="0.4" r="0.7"><stop offset="0%" stop-color="#FFFFFF" stop-opacity="0.18"/><stop offset="100%" stop-color="#FFFFFF" stop-opacity="0"/></radialGradient></defs><rect width="1200" height="1200" fill="url(#bg)"/><circle cx="600" cy="500" r="306" fill="none" stroke="#FFFFFF" stroke-opacity="0.18" stroke-width="12"/><circle cx="600" cy="500" r="246" fill="none" stroke="#FFFFFF" stroke-opacity="0.30" stroke-width="4"/><circle cx="600" cy="500" r="220" fill="#0E1A2E" fill-opacity="0.26"/><circle cx="600" cy="500" r="320" fill="url(#halo)"/><g transform="translate(600 500) scale(14) translate(-12 -12)" color="#FFFFFF" stroke="currentColor" fill="none" stroke-width="2" stroke-linecap="round" stroke-linejoin="round"><path d="M4 14a1 1 0 0 1-.78-1.63l9.9-10.2a.5.5 0 0 1 .86.46l-1.92 6.02A1 1 0 0 0 13 10h7a1 1 0 0 1 .78 1.63l-9.9 10.2a.5.5 0 0 1-.86-.46l1.92-6.02A1 1 0 0 0 11 14z" /></g><rect x="255" y="874" width="690" height="142" rx="71" fill="#0E1A2E" fill-opacity="0.5"/><rect x="265" y="884" width="670" height="122" rx="61" fill="none" stroke="#FFFFFF" stroke-opacity="0.36" stroke-width="3"/><text x="600" y="961" text-anchor="middle" fill="#FFFFFF" font-family="Arial Black, Arial, Helvetica, sans-serif" font-size="70" font-weight="700" letter-spacing="2">ENERGÉTICAS E</text><rect x="10" y="10" width="1180" height="1180" rx="24" fill="none" stroke="#FFFFFF" stroke-opacity="0.14" stroke-width="4"/></svg>