<svg xmlns="http://www.w3.org/2000/svg" width="1200" height="1200" viewBox="0 0 1200 1200" role="img" aria-label="JUEGOS" data-template-version="v1" data-icon="gamepad-2"><defs><linearGradient id="bg" x1="0" y1="0" x2="1" y2="1"><stop offset="0%" stop-color="#5F8E3A"/><stop offset="100%" stop-color="#264419"/></linearGradient><radialGradient id="halo" cx="0.5" cy="0.4" r="0.7"><stop offset="0%" stop-color="#FFFFFF" stop-opacity="0.18"/><stop offset="100%" stop-color="#FFFFFF" stop-opacity="0"/></radialGradient></defs><rect width="1200" height="1200" fill="url(#bg)"/><circle cx="600" cy="500" r="306" fill="none" stroke="#FFFFFF" stroke-opacity="0.18" stroke-width="12"/><circle cx="600" cy="500" r="246" fill="none" stroke="#FFFFFF" stroke-opacity="0.30" stroke-width="4"/><circle cx="600" cy="500" r="220" fill="#0E1A2E" fill-opacity="0.26"/><circle cx="600" cy="500" r="320" fill="url(#halo)"/><g transform="translate(600 500) scale(14) translate(-12 -12)" color="#FFFFFF" stroke="currentColor" fill="none" stroke-width="2" stroke-linecap="round" stroke-linejoin="round"><line x1="6" x2="10" y1="11" y2="11" />
  <line x1="8" x2="8" y1="9" y2="13" />
  <line x1="15" x2="15.01" y1="12" y2="12" />
  <line x1="18" x2="18.01" y1="10" y2="10" />
  <path d="M17.32 5H6.68a4 4 0 0 0-3.978 3.59c-.006.052-.01.101-.017.152C2.604 9.416 2 14.456 2 16a3 3 0 0 0 3 3c1 0 1.5-.5 2-1l1.414-1.414A2 2 0 0 1 9.828 16h4.344a2 2 0 0 1 1.414.586L17 18c.5.5 1 1 2 1a3 3 0 0 0 3-3c0-1.545-.604-6.584-.685-7.258-.007-.05-.011-.1-.017-.151A4 4 0 0 0 17.32 5z" /></g><rect x="255" y="874" width="690" height="142" rx="71" fill="#0E1A2E" fill-opacity="0.5"/><rect x="265" y="884" width="670" height="122" rx="61" fill="none" stroke="#FFFFFF" stroke-opacity="0.36" stroke-width="3"/><text x="600" y="961" text-anchor="middle" fill="#FFFFFF" font-family="Arial Black, Arial, Helvetica, sans-serif" font-size="70" font-weight="700" letter-spacing="2">JUEGOS</text><rect x="10" y="10" width="1180" height="1180" rx="24" fill="none" stroke="#FFFFFF" stroke-opacity="0.14" stroke-width="4"/></svg>