<svg xmlns="http://www.w3.org/2000/svg" width="1200" height="1200" viewBox="0 0 1200 1200" role="img" aria-label="LÁCTEOS" data-template-version="v3" data-icon="milk"><defs><linearGradient id="bg" x1="0" y1="0" x2="1" y2="1"><stop offset="0%" stop-color="#EFD8A3"/><stop offset="100%" stop-color="#8F6E33"/></linearGradient><radialGradient id="halo" cx="0.5" cy="0.4" r="0.7"><stop offset="0%" stop-color="#FFFFFF" stop-opacity="0.18"/><stop offset="100%" stop-color="#FFFFFF" stop-opacity="0"/></radialGradient></defs><rect width="1200" height="1200" fill="url(#bg)"/><circle cx="600" cy="500" r="306" fill="none" stroke="#FFFFFF" stroke-opacity="0.18" stroke-width="12"/><circle cx="600" cy="500" r="246" fill="none" stroke="#FFFFFF" stroke-opacity="0.30" stroke-width="4"/><circle cx="600" cy="500" r="220" fill="#0E1A2E" fill-opacity="0.26"/><circle cx="600" cy="500" r="320" fill="url(#halo)"/><g transform="translate(600 500) scale(14) translate(-12 -12)" color="#FFFFFF" stroke="currentColor" fill="none" stroke-width="2" stroke-linecap="round" stroke-linejoin="round"><path d="M8 2h8" />
  <path d="M9 2v2.789a4 4 0 0 1-.672 2.219l-.656.984A4 4 0 0 0 7 10.212V20a2 2 0 0 0 2 2h6a2 2 0 0 0 2-2v-9.789a4 4 0 0 0-.672-2.219l-.656-.984A4 4 0 0 1 15 4.788V2" />
  <path d="M7 15a6.472 6.472 0 0 1 5 0 6.47 6.47 0 0 0 5 0" /></g><rect x="255" y="868" width="690" height="156" rx="78" fill="#0E1A2E" fill-opacity="0.5"/><rect x="265" y="878" width="670" height="136" rx="68" fill="none" stroke="#FFFFFF" stroke-opacity="0.36" stroke-width="3"/><text x="600" text-anchor="middle" fill="#FFFFFF" font-family="Arial Black, Arial, Helvetica, sans-serif" font-size="70" font-weight="700" letter-spacing="2" dominant-baseline="middle" style="paint-order: stroke; stroke: rgba(10, 16, 28, 0.35); stroke-width: 2px;"><tspan x="600" y="946.0">LÁCTEOS</tspan></text><rect x="10" y="10" width="1180" height="1180" rx="24" fill="none" stroke="#FFFFFF" stroke-opacity="0.14" stroke-width="4"/></svg>