<svg xmlns="http://www.w3.org/2000/svg" width="1200" height="1200" viewBox="0 0 1200 1200" role="img" aria-label="PISCOS" data-template-version="v1" data-icon="wine"><defs><linearGradient id="bg" x1="0" y1="0" x2="1" y2="1"><stop offset="0%" stop-color="#2A87B8"/><stop offset="100%" stop-color="#123A5B"/></linearGradient><radialGradient id="halo" cx="0.5" cy="0.4" r="0.7"><stop offset="0%" stop-color="#FFFFFF" stop-opacity="0.18"/><stop offset="100%" stop-color="#FFFFFF" stop-opacity="0"/></radialGradient></defs><rect width="1200" height="1200" fill="url(#bg)"/><circle cx="600" cy="500" r="306" fill="none" stroke="#FFFFFF" stroke-opacity="0.18" stroke-width="12"/><circle cx="600" cy="500" r="246" fill="none" stroke="#FFFFFF" stroke-opacity="0.30" stroke-width="4"/><circle cx="600" cy="500" r="220" fill="#0E1A2E" fill-opacity="0.26"/><circle cx="600" cy="500" r="320" fill="url(#halo)"/><g transform="translate(600 500) scale(14) translate(-12 -12)" color="#FFFFFF" stroke="currentColor" fill="none" stroke-width="2" stroke-linecap="round" stroke-linejoin="round"><path d="M8 22h8" />
  <path d="M7 10h10" />
  <path d="M12 15v7" />
  <path d="M12 15a5 5 0 0 0 5-5c0-2-.5-4-2-8H9c-1.5 4-2 6-2 8a5 5 0 0 0 5 5Z" /></g><rect x="255" y="874" width="690" height="142" rx="71" fill="#0E1A2E" fill-opacity="0.5"/><rect x="265" y="884" width="670" height="122" rx="61" fill="none" stroke="#FFFFFF" stroke-opacity="0.36" stroke-width="3"/><text x="600" y="961" text-anchor="middle" fill="#FFFFFF" font-family="Arial Black, Arial, Helvetica, sans-serif" font-size="70" font-weight="700" letter-spacing="2">PISCOS</text><rect x="10" y="10" width="1180" height="1180" rx="24" fill="none" stroke="#FFFFFF" stroke-opacity="0.14" stroke-width="4"/></svg>